<svg xmlns="http://www.w3.org/2000/svg" width="1320" height="760" viewBox="0 0 1320 760">
<rect width="1320" height="760" fill="#FFFDF8"/>
<text x="60" y="60" font-size="30" font-weight="700" fill="#1F1F1F">Figure 2. Risk And Reliability Metrics</text>
<text x="60" y="92" font-size="16" fill="#666666">纵轴统一为 0-1 或 0-1.6；MAE 越低越好，其余指标越高越好。</text>
<rect x="960" y="38" width="16" height="16" rx="3" fill="#5B8FF9"/>
<text x="984" y="51" font-size="15" fill="#1F1F1F">Base Direct</text>
<rect x="960" y="66" width="16" height="16" rx="3" fill="#61DDAA"/>
<text x="984" y="79" font-size="15" fill="#1F1F1F">Trained Direct</text>
<rect x="960" y="94" width="16" height="16" rx="3" fill="#F6BD16"/>
<text x="984" y="107" font-size="15" fill="#1F1F1F">Trained Value-Guided MCTS</text>
<line x1="90" y1="140.0" x2="1280" y2="140.0" stroke="#D9D3C7" stroke-width="1"/>
<text x="78" y="145.0" font-size="14" text-anchor="end" fill="#666666">1.6</text>
<line x1="90" y1="265.0" x2="1280" y2="265.0" stroke="#D9D3C7" stroke-width="1"/>
<text x="78" y="270.0" font-size="14" text-anchor="end" fill="#666666">1.2</text>
<line x1="90" y1="390.0" x2="1280" y2="390.0" stroke="#D9D3C7" stroke-width="1"/>
<text x="78" y="395.0" font-size="14" text-anchor="end" fill="#666666">0.8</text>
<line x1="90" y1="515.0" x2="1280" y2="515.0" stroke="#D9D3C7" stroke-width="1"/>
<text x="78" y="520.0" font-size="14" text-anchor="end" fill="#666666">0.4</text>
<line x1="90" y1="640.0" x2="1280" y2="640.0" stroke="#D9D3C7" stroke-width="1"/>
<text x="78" y="645.0" font-size="14" text-anchor="end" fill="#666666">0.0</text>
<line x1="90" y1="140" x2="90" y2="640" stroke="#353535" stroke-width="2"/>
<line x1="90" y1="640" x2="1280" y2="640" stroke="#353535" stroke-width="2"/>
<text x="235.0" y="705" font-size="16" text-anchor="middle" fill="#1F1F1F">Low-FP</text>
<text x="235.0" y="730" font-size="12" text-anchor="middle" fill="#666666">越低越好</text>
<rect x="130" y="632.2" width="58" height="7.8" rx="6" fill="#5B8FF9"/>
<text x="159.0" y="624.2" font-size="13" text-anchor="middle" fill="#1F1F1F">0.025</text>
<rect x="200" y="623.6" width="58" height="16.4" rx="6" fill="#61DDAA"/>
<text x="229.0" y="615.6" font-size="13" text-anchor="middle" fill="#1F1F1F">0.053</text>
<rect x="270" y="590.7" width="58" height="49.3" rx="6" fill="#F6BD16"/>
<text x="299.0" y="582.7" font-size="13" text-anchor="middle" fill="#1F1F1F">0.158</text>
<text x="515.0" y="705" font-size="16" text-anchor="middle" fill="#1F1F1F">High-FN</text>
<text x="515.0" y="730" font-size="12" text-anchor="middle" fill="#666666">越低越好</text>
<rect x="410" y="577.5" width="58" height="62.5" rx="6" fill="#5B8FF9"/>
<text x="439.0" y="569.5" font-size="13" text-anchor="middle" fill="#1F1F1F">0.200</text>
<rect x="480" y="590.7" width="58" height="49.3" rx="6" fill="#61DDAA"/>
<text x="509.0" y="582.7" font-size="13" text-anchor="middle" fill="#1F1F1F">0.158</text>
<rect x="550" y="607.1" width="58" height="32.9" rx="6" fill="#F6BD16"/>
<text x="579.0" y="599.1" font-size="13" text-anchor="middle" fill="#1F1F1F">0.105</text>
<text x="795.0" y="705" font-size="16" text-anchor="middle" fill="#1F1F1F">Unsupported</text>
<text x="795.0" y="730" font-size="12" text-anchor="middle" fill="#666666">越低越好</text>
<rect x="690" y="608.8" width="58" height="31.2" rx="6" fill="#5B8FF9"/>
<text x="719.0" y="600.8" font-size="13" text-anchor="middle" fill="#1F1F1F">0.100</text>
<rect x="760" y="623.6" width="58" height="16.4" rx="6" fill="#61DDAA"/>
<text x="789.0" y="615.6" font-size="13" text-anchor="middle" fill="#1F1F1F">0.053</text>
<rect x="830" y="631.8" width="58" height="8.2" rx="6" fill="#F6BD16"/>
<text x="859.0" y="623.8" font-size="13" text-anchor="middle" fill="#1F1F1F">0.026</text>
</svg>